<svg xmlns="http://www.w3.org/2000/svg" width="67" height="67" fill="none" viewBox="0 0 67 67">
  <path fill="#E30613" d="M33.74 66.31c18.253 0 33.05-14.797 33.05-33.05C66.79 15.007 51.993.21 33.74.21 15.487.21.69 15.007.69 33.26c0 18.253 14.797 33.05 33.05 33.05Z"/>
  <path fill="#fff" d="M43.65 34.79a2.91 2.91 0 0 1 .26-1.06c.152-.336.37-.64.64-.89a3.35 3.35 0 0 1 2.35-.87 2.732 2.732 0 0 1 2.06.83 2.66 2.66 0 0 1 .77 2l-6.08-.01Zm6.75 4.2a5.142 5.142 0 0 1-1.37 1.3 3.46 3.46 0 0 1-1.92.5 3.38 3.38 0 0 1-2.27-.78 3.63 3.63 0 0 1-1.2-2.1h10.68v-1.44a9.92 9.92 0 0 0-.49-3.22 7.19 7.19 0 0 0-1.4-2.47 6 6 0 0 0-2.21-1.58 7.37 7.37 0 0 0-2.9-.55 9.4 9.4 0 0 0-3.24.55 7.81 7.81 0 0 0-2.64 1.58 7.41 7.41 0 0 0-1.79 2.48 8.37 8.37 0 0 0 0 6.44 7.41 7.41 0 0 0 1.76 2.47 7.8 7.8 0 0 0 2.64 1.58 9.388 9.388 0 0 0 3.24.55 8.362 8.362 0 0 0 3.5-.77 7.33 7.33 0 0 0 2.86-2.17l-3.25-2.37Zm-27.39 4.94h4.79v-8.47h9v-4.42h-9v-4.38h9.79v-4.42H23l.01 21.69Zm-12.72-14.5h3.77v3.77h2.26v-3.77h3.77v-2.26h-3.77V23.4h-2.26v3.77h-3.77v2.26Z"/>
</svg>
